<svg enable-background="new 0 0 64 64" height="64" viewBox="0 0 64 64" width="64" xmlns="http://www.w3.org/2000/svg">
<g fill="#0067f4">
<path d="m60 9.3h-56c-2.1 0-4 1.9-4 4v26.7c0 2.1 1.9 4 4 4h25.3v5.3h-10.6c-1.6 0-2.7 1.1-2.7 2.7s1.1 2.7 2.7 2.7h26.7c1.6 0 2.7-1.1 2.7-2.7s-1.1-2.7-2.7-2.7h-10.7v-5.3h25.3c2.1 0 4-1.9 4-4v-26.7c0-2.1-1.9-4-4-4zm-1.3 29.4h-53.4v-24h53.3v24z"/>
<!-- <path d="m17.3 36c2.1 0 4-1.9 4-4 1.3-1.1 3.5-2.7 5.3-4.3.6.3.9.3 1.4.3 1.1 0 1.9-.3 2.7-1.1l4.8 1.6c.8.3 1.6.3 2.4-.3l4.8-3.2c.5.3 1.1.3 1.6.3 2.1 0 4-1.9 4-4s-2.1-4-4.3-4c-1.9 0-3.2 1.1-3.7 2.7l-4.5 2.9-4.5-1.3c-.9-1.1-2-1.6-3.3-1.6-1.9 0-3.5 1.3-3.7 2.9-2.1 1.6-5.1 4-6.4 5.1h-.3c-2.4 0-4.3 1.9-4.3 4s1.9 4 4 4z"/> -->
<g  transform="translate(-270.000000, -1395.000000)" fill="#FFFFF">
             <path d="M288.648438,1431.2125 C288.385938,1432.82188 288.304688,1433.62344 290.179688,1433.58594 C291.26875,1433.5625 292.615625,1433.22032 293.642187,1432.97969 C299.467188,1431.61407 302.29375,1432.05625 307.948438,1433.28282 C311.890625,1434.1375 311.875,1433.23907 311.110937,1429.70157 L310.601562,1426.2 C311.429688,1426.11719 316.53125,1423.49688 317.573438,1423.30938 L317.560938,1424.70469 C317.276563,1424.96094 317.051562,1424.95938 317.040625,1425.47344 C317.029688,1425.93594 317.239062,1426.02969 317.45625,1426.23438 C317.476562,1426.8375 317.345312,1426.75625 317.265625,1427.21719 C317.070312,1428.37032 316.553125,1434.74844 316.664062,1434.975 C316.921875,1435.50938 318.542188,1435.66094 318.845312,1435.00157 C319.076563,1434.50469 318.415625,1427.93594 318.151563,1426.7625 C317.953125,1425.88282 318.45,1426.20313 318.514063,1425.575 C318.567187,1425.05469 318.2625,1424.96563 317.965625,1424.70469 L317.96875,1423.09688 C319.25625,1422.43594 323.257812,1420.89688 324,1420.41563 C323.290625,1419.96875 319.207812,1418.30938 318.060938,1417.79844 C316.025,1416.88907 314.078125,1416.05 312.042188,1415.18282 C310.742188,1414.62813 300.384375,1410.00782 300.009375,1410 C299.734375,1409.99532 289.223437,1414.62344 287.970312,1415.17813 C285.976562,1416.05938 283.985937,1416.9375 281.95,1417.78594 C281.171875,1418.10938 276.354688,1420.15782 276,1420.43125 C277.546875,1421.24844 289.16875,1426.19063 289.398438,1426.19063 L288.648438,1431.2125 Z" id="Classmates"></path>
       </g>
</g>
</svg>